<svg width="36" height="36" viewBox="0 0 36 36" fill="none" xmlns="http://www.w3.org/2000/svg">
<mask id="mask0_2066_3557" style="mask-type:luminance" maskUnits="userSpaceOnUse" x="0" y="0" width="36" height="36">
<path d="M0 3.8147e-06H36V36H0V3.8147e-06Z" fill="white"/>
</mask>
<g mask="url(#mask0_2066_3557)">
<path d="M23.8244 26.1543C24.4677 26.1543 24.9892 25.6328 24.9892 24.9895C24.9892 24.3461 24.4677 23.8246 23.8244 23.8246H12.176C11.5327 23.8246 11.0112 24.3461 11.0112 24.9895C11.0112 25.6328 11.5327 26.1543 12.176 26.1543H23.8244Z" stroke="black" stroke-width="1.05469" stroke-miterlimit="10" stroke-linecap="round" stroke-linejoin="round"/>
<path d="M23.8242 26.1545H12.1758V30.8936C12.1758 32.1362 13.1831 33.1436 14.4258 33.1436H21.5742C22.8168 33.1436 23.8242 32.1362 23.8242 30.8936V26.1545Z" stroke="black" stroke-width="1.05469" stroke-miterlimit="10" stroke-linecap="round" stroke-linejoin="round"/>
<path d="M14.5054 33.143C14.5054 34.4296 15.5485 35.4727 16.8351 35.4727H19.1648C20.4513 35.4727 21.4944 34.4296 21.4944 33.143H14.5054Z" stroke="black" stroke-width="1.05469" stroke-miterlimit="10" stroke-linecap="round" stroke-linejoin="round"/>
<path d="M12.1758 28.4844H23.8242" stroke="black" stroke-width="1.05469" stroke-miterlimit="10" stroke-linecap="round" stroke-linejoin="round"/>
<path d="M12.1758 30.8135H23.8242" stroke="black" stroke-width="1.05469" stroke-miterlimit="10" stroke-linecap="round" stroke-linejoin="round"/>
<path d="M29.066 11.5944C29.066 5.61159 24.3183 0.737736 18.3849 0.534955C12.1489 0.321908 7.0026 5.23211 6.93475 11.4713C6.89538 15.0927 8.5961 18.3183 11.2522 20.3647C11.8302 20.81 12.1758 21.4924 12.1758 22.222V23.8252H23.8242V22.2219C23.8242 21.493 24.1689 20.8106 24.7463 20.3659C27.3732 18.3427 29.066 15.1664 29.066 11.5944Z" stroke="black" stroke-width="1.05469" stroke-miterlimit="10" stroke-linecap="round" stroke-linejoin="round"/>
<path d="M1.69189 11.5938H4.02163" stroke="black" stroke-width="1.05469" stroke-miterlimit="10" stroke-linecap="round" stroke-linejoin="round"/>
<path d="M3.87695 19.748L5.8945 18.5833" stroke="black" stroke-width="1.05469" stroke-miterlimit="10" stroke-linecap="round" stroke-linejoin="round"/>
<path d="M32.123 19.748L30.1055 18.5833" stroke="black" stroke-width="1.05469" stroke-miterlimit="10" stroke-linecap="round" stroke-linejoin="round"/>
<path d="M34.3078 11.5938H31.978" stroke="black" stroke-width="1.05469" stroke-miterlimit="10" stroke-linecap="round" stroke-linejoin="round"/>
<path d="M32.123 3.4397L30.1055 4.60449" stroke="black" stroke-width="1.05469" stroke-miterlimit="10" stroke-linecap="round" stroke-linejoin="round"/>
<path d="M3.87695 3.4397L5.8945 4.60449" stroke="black" stroke-width="1.05469" stroke-miterlimit="10" stroke-linecap="round" stroke-linejoin="round"/>
<path d="M19.1646 11.594C19.1646 12.2373 18.6431 12.7588 17.9998 12.7588C17.3565 12.7588 16.835 12.2373 16.835 11.594C16.835 10.9507 17.3565 10.4292 17.9998 10.4292C18.6431 10.4292 19.1646 10.9507 19.1646 11.594Z" stroke="black" stroke-width="1.05469" stroke-miterlimit="10" stroke-linecap="round" stroke-linejoin="round"/>
<path d="M24.9892 12.2645V10.9214C24.9892 10.6368 24.7834 10.3938 24.5025 10.347L23.6569 10.2061C23.5142 9.62246 23.2849 9.07283 22.9812 8.57312L23.479 7.87618C23.6446 7.6445 23.6183 7.32711 23.417 7.12581L22.4674 6.17617C22.2661 5.97486 21.9487 5.94863 21.717 6.11408L21.0201 6.61182C20.5203 6.30821 19.9707 6.07892 19.3871 5.93626L19.2462 5.09068C19.1993 4.80985 18.9563 4.60398 18.6716 4.60398H17.3287C17.044 4.60398 16.801 4.80985 16.7542 5.09068L16.6132 5.93626C16.0296 6.07892 15.4801 6.30821 14.9802 6.61189L14.2834 6.11415C14.0517 5.9487 13.7344 5.97493 13.533 6.17624L12.5834 7.12588C12.382 7.32718 12.3558 7.64457 12.5213 7.87625L13.0191 8.57312C12.7154 9.0729 12.4862 9.62253 12.3435 10.2061L11.4979 10.347C11.217 10.3939 11.0112 10.6369 11.0112 10.9216V12.2645C11.0112 12.5493 11.217 12.7922 11.4979 12.839L12.3436 12.98C12.4862 13.5635 12.7155 14.1131 13.0192 14.6128L12.5214 15.3099C12.3559 15.5415 12.3821 15.8589 12.5835 16.0602L13.5331 17.0098C13.7344 17.2111 14.0518 17.2374 14.2834 17.0719L14.9804 16.574C15.4802 16.8777 16.0298 17.1069 16.6133 17.2495L16.7543 18.0954C16.8011 18.3762 17.0441 18.582 17.3288 18.582H18.6717C18.9565 18.582 19.1994 18.3762 19.2462 18.0953L19.3872 17.2495C19.9707 17.1069 20.5202 16.8776 21.02 16.574L21.7171 17.0719C21.9488 17.2374 22.2661 17.2111 22.4675 17.0097L23.4171 16.0601C23.6183 15.8588 23.6446 15.5414 23.4791 15.3098L22.9812 14.6128C23.2849 14.113 23.5141 13.5635 23.6568 12.98L24.5026 12.8389C24.7834 12.7921 24.9892 12.5491 24.9892 12.2645Z" stroke="black" stroke-width="1.05469" stroke-miterlimit="10" stroke-linecap="round" stroke-linejoin="round"/>
<path d="M22.0768 11.594C22.0768 13.8456 20.2515 15.6709 17.9999 15.6709C15.7482 15.6709 13.9229 13.8456 13.9229 11.594C13.9229 9.34235 15.7482 7.51704 17.9999 7.51704C20.2515 7.51704 22.0768 9.34235 22.0768 11.594Z" stroke="black" stroke-width="1.05469" stroke-miterlimit="10" stroke-linecap="round" stroke-linejoin="round"/>
</g>
</svg>
